<svg width="23" height="17" viewBox="0 0 23 17" fill="none" xmlns="http://www.w3.org/2000/svg">
<g clip-path="url(#clip0_405_6490)">
<path d="M3.7467 16.6968C2.83626 15.2901 2.31855 13.6604 2.24836 11.9803C2.17817 10.3001 2.55812 8.63204 3.34799 7.15259C4.13786 5.67314 5.30825 4.43738 6.73527 3.57613C8.16229 2.71487 9.79283 2.26018 11.4543 2.26018C13.1157 2.26018 14.7463 2.71487 16.1733 3.57613C17.6003 4.43738 18.7707 5.67314 19.5606 7.15259C20.3504 8.63204 20.7304 10.3001 20.6602 11.9803C20.59 13.6604 20.0723 15.2901 19.1619 16.6968H21.7416C22.5984 14.9289 22.9963 12.9693 22.8979 11.0027C22.7994 9.0361 22.2077 7.12727 21.1787 5.45615C20.1496 3.78504 18.717 2.40669 17.016 1.45105C15.315 0.495413 13.4015 -0.00604248 11.456 -0.00604248C9.51054 -0.00604248 7.59709 0.495413 5.89607 1.45105C4.19504 2.40669 2.76247 3.78504 1.73341 5.45615C0.704344 7.12727 0.112684 9.0361 0.0142017 11.0027C-0.084281 12.9693 0.313657 14.9289 1.17051 16.6968H3.7467Z" fill="#4A4AF4"/>
<path d="M11.6097 6.08527C9.93185 6.08527 8.00059 6.88662 6.95194 7.73219L7.90796 9.77184C8.74863 8.99348 10.1084 8.32834 11.3336 8.32834C12.4993 8.32834 13.1407 8.72106 13.1407 9.5171C13.1407 10.0478 12.7143 10.3521 11.9086 10.4264C8.8867 10.7076 6.53772 11.6647 6.53772 14.0121C6.53772 15.8749 7.86426 16.9999 10.0472 16.9999C10.7034 17.0008 11.348 16.8248 11.9148 16.4899C12.4815 16.1551 12.9499 15.6735 13.2718 15.0947V16.6957H15.9948V9.98412C15.9948 7.21211 14.0898 6.09234 11.6097 6.09234V6.08527ZM10.8145 14.8471C9.9406 14.8471 9.44948 14.465 9.44948 13.8387C9.44948 12.5297 11.0225 12.2148 13.0848 12.2148C13.0848 13.584 12.1795 14.8471 10.8127 14.8471H10.8145Z" fill="#060809"/>
</g>
<defs>
<clipPath id="clip0_405_6490">
<rect width="22.913" height="17" fill="white"/>
</clipPath>
</defs>
</svg>
