<svg width="63" height="63" viewBox="0 0 63 63" fill="none" xmlns="http://www.w3.org/2000/svg">
<g clip-path="url(#clip0_392_18577)">
<path d="M31.4998 30.2397C28.714 30.2397 26.4598 32.4977 26.4598 35.2798C26.4598 38.0618 28.714 40.3198 31.4998 40.3198C34.2857 40.3198 36.5398 38.0618 36.5398 35.2798C36.5398 32.4964 34.2857 30.2397 31.4998 30.2397Z" stroke="#009EFF" stroke-width="1.52381" stroke-miterlimit="10" stroke-linecap="round" stroke-linejoin="round"/>
<path d="M56.648 52.0857C58.3573 49.5304 59.6881 46.701 60.5598 43.6764C61.328 41.0111 61.7397 38.1943 61.7397 35.2798C61.7397 34.5739 61.7155 33.8737 61.668 33.18C61.5194 31.0087 61.1421 28.9008 60.5598 26.88C60.2498 25.8041 59.8818 24.7529 59.4592 23.73C59.2391 23.1971 59.0042 22.672 58.7551 22.155C58.3388 21.2913 57.8827 20.4505 57.3892 19.635C52.0931 10.8837 42.4844 5.03979 31.4997 5.03979C14.787 5.03979 1.25964 18.5672 1.25964 35.2798C1.25964 41.4992 3.13452 47.2763 6.34626 52.0781" stroke="#999999" stroke-width="1.52381" stroke-miterlimit="10" stroke-linecap="round" stroke-linejoin="round"/>
<path d="M54.1799 49.542C54.3983 49.2196 54.6094 48.8921 54.813 48.5596C55.1816 47.9578 55.5257 47.3398 55.8441 46.707C56.2546 45.8908 56.6222 45.0499 56.944 44.187C57.1568 43.6165 57.3495 43.0364 57.5213 42.4476C57.6868 41.8803 57.833 41.3048 57.959 40.722C58.0713 40.2027 58.1676 39.6775 58.2473 39.147C58.347 38.4842 58.4208 37.8131 58.4679 37.1346C58.5084 36.5496 58.5291 35.9591 58.5291 35.3638M56.5812 25.6199C56.9421 26.4828 57.2565 27.3697 57.5213 28.2774C57.6868 28.8448 57.833 29.4205 57.959 30.0035C58.094 30.6281 58.2059 31.2613 58.2937 31.902" stroke="#009EFF" stroke-width="1.52381" stroke-miterlimit="10" stroke-linecap="round" stroke-linejoin="round"/>
<path d="M50.7915 16.76C51.4234 17.4497 52.0196 18.1776 52.5762 18.9419C52.9242 19.4198 53.2567 19.9119 53.5727 20.4178C53.9113 20.9598 54.2311 21.5176 54.5308 22.0906" stroke="#009EFF" stroke-width="1.52381" stroke-miterlimit="10" stroke-linecap="round" stroke-linejoin="round"/>
<path d="M28.5891 31.1574L49.1326 21.228L35.0945 38.8612" stroke="#009EFF" stroke-width="1.52381"/>
</g>
<defs>
<clipPath id="clip0_392_18577">
<rect width="63" height="63" fill="white"/>
</clipPath>
</defs>
</svg>
