<svg width="174" height="51" viewBox="0 0 174 51" fill="none" xmlns="http://www.w3.org/2000/svg">
<path d="M33.2136 0C29.8488 0 27.0923 2.74135 27.0923 6.08777C27.0923 9.4342 29.8488 12.1138 33.2136 12.1138C36.5784 12.1138 39.2727 9.4342 39.2727 6.08777C39.2727 2.74135 36.5784 0 33.2136 0ZM8.16992 13.4968C7.15178 13.4968 6.33231 14.3118 6.33231 15.3244C6.33231 16.337 7.15178 17.152 8.16992 17.152H28.1353C28.8182 17.1149 30.8048 17.2754 31.6988 18.4238C32.6424 19.6463 32.2079 21.7826 31.6988 23.3509C31.6988 23.3509 25.9004 41.8365 25.4658 43.2195C24.547 46.1708 21.6664 48.023 18.8976 46.8129C16.613 45.8127 16.464 43.6517 17.2338 41.5524C17.3331 41.2931 17.4573 41.1079 17.5691 40.8856C17.5691 40.8856 22.5356 31.5873 23.6282 28.9941C24.4353 27.0924 23.3923 25.7835 20.8966 25.7835H9.54813C8.52999 25.7835 7.71052 26.5985 7.71052 27.6111C7.71052 28.6236 8.52999 29.4386 9.54813 29.4386H12.7764C13.4593 29.4016 15.4955 29.488 16.2778 30.7105C17.7429 32.9826 16.7372 33.7235 14.5519 41.2808C14.4153 41.6759 14.2912 42.0834 14.2167 42.5033C14.2167 42.5033 12.7143 47.7884 17.4946 49.9741C21.9148 51.9869 27.0427 49.8382 28.5699 45.047C29.6377 41.6759 35.1878 24.4622 35.1878 24.4622C36.3177 20.9553 36.1314 18.1522 34.5794 16.1641C32.4314 13.4227 28.5947 13.4845 28.0111 13.5092H8.16992V13.4968ZM1.83761 19.5352C0.819474 19.5352 0 20.3502 0 21.3628C0 22.3753 0.819474 23.2397 1.83761 23.2397H25.3168C26.335 23.2397 27.1544 22.3753 27.1544 21.3628C27.1544 20.3502 26.335 19.5352 25.3168 19.5352H1.83761Z" fill="white"/>
<path d="M60.4835 12.012C57.6305 12.012 52.5517 12.3602 52.5517 15.0733C52.5517 19.0231 61.0983 19.0591 61.0983 21.3161C61.0983 22.0004 60.3851 22.6126 58.7865 22.6126C56.5483 22.6126 55.2817 22.4806 53.2158 22.1324C52.3427 21.9883 52.0475 23.6691 52.7731 23.8492C54.1258 24.1973 56.2409 24.4974 60.0531 24.4974C62.9061 24.4974 67.8742 23.9932 67.8742 21.268C67.8742 17.3183 59.389 17.2943 59.389 15.1934C59.389 14.5091 60.1023 13.8968 61.7009 13.8968H67.0994C68.1939 13.8968 68.1939 12.012 67.0994 12.012H60.4835V12.012ZM80.7126 12.012C77.6136 12.012 72.3873 12.1921 72.3873 16.3699V20.1876C72.3873 24.3774 77.6136 24.5455 80.7126 24.5455C83.996 24.5455 85.7545 24.2453 87.1072 23.8972C87.845 23.7171 87.5376 22.0244 86.6645 22.1804C84.5985 22.5286 83.3442 22.6606 81.0938 22.6606C79.0032 22.6606 78.4499 22.1924 78.4499 20.9439V19.4913C78.4499 18.999 78.5728 18.903 79.1139 18.903H83.3565C84.1804 18.903 84.1804 17.2943 83.3565 17.2943H79.1139C78.5728 17.2943 78.4499 17.1983 78.4499 16.706V15.6256C78.4499 14.365 79.0032 13.9088 81.0938 13.9088H86.4431C87.5376 13.9088 87.5376 12.024 86.4431 12.024H80.7126V12.012ZM99.8349 12.012C96.736 12.012 91.5096 12.1921 91.5096 16.3699V20.3556C91.5096 24.2453 96.5146 24.4494 99.6135 24.4494C102.245 24.4494 107.988 24.3174 107.988 20.6798V19.4913C107.988 18.0026 106.992 17.6064 105.012 17.6064H100.659C100.069 17.6064 100.069 19.2151 100.659 19.2151H101.987C102.528 19.2151 102.589 19.3232 102.589 19.8034V20.8238C102.589 22.0844 101.397 22.7567 99.6135 22.7567C97.8304 22.7567 97.191 22.0724 97.191 20.8238V15.6016C97.191 14.341 98.1256 13.8848 100.216 13.8848H105.565C106.66 13.8848 106.66 12 105.565 12H99.8349V12.012ZM111.345 12.012C110.595 12.012 110.607 12.3121 110.792 12.9244L113.989 22.3965C114.42 23.561 115.354 24.3294 117.186 24.3294C119.019 24.3294 119.892 23.549 120.322 22.5046C120.322 22.5046 121.589 18.807 121.81 18.1467C121.958 17.6905 122.327 17.6905 122.474 18.1467C122.659 18.7109 123.913 22.3965 123.913 22.3965C124.528 23.6211 125.18 24.3294 127.049 24.3294C129.25 24.3294 130.209 23.453 130.578 22.3965C130.812 21.7362 132.509 16.0818 133.554 12.8164C133.763 12.1801 133.702 12.012 133.111 12.012H131.181C130.578 14.0049 128.721 19.9955 128.648 20.2476C128.512 20.7038 128.168 20.6918 127.983 20.2476C127.86 19.9355 125.782 14.389 125.45 13.5247C125.106 12.6603 124.159 12.024 123.077 12.024C122.105 12.024 121.195 12.5402 120.876 13.5247C120.556 14.5091 118.81 19.9835 118.724 20.2476C118.588 20.7038 118.207 20.7038 118.06 20.2476C117.961 19.9715 116.067 13.9208 115.465 12.012H111.345V12.012ZM145.237 12.012C142.236 12.012 137.465 11.988 137.465 15.6136V23.1408C137.465 23.8972 138.043 24.3294 139.998 24.3294C141.953 24.3294 142.531 23.8011 142.531 23.1408V19.6953C142.531 19.2031 142.654 19.1071 143.195 19.1071H147.167C147.708 19.1071 147.831 19.2151 147.831 19.6953V23.1408C147.831 23.8011 148.409 24.3294 150.365 24.3294C152.32 24.3294 152.898 23.9092 152.898 23.1408V15.6136C152.898 11.988 148.237 12.012 145.237 12.012ZM156.206 12.012C155.714 12.012 155.505 12.3722 155.874 12.8164C157.116 14.329 160.03 17.8946 160.227 18.1467C160.473 18.4468 160.83 18.867 160.83 19.3352V23.1529C160.83 23.8131 161.469 24.3414 163.424 24.3414C165.38 24.3414 166.068 23.9212 166.068 23.1529V19.011C166.068 18.5188 166.4 18.2547 166.671 17.9306C166.868 17.6785 169.622 14.377 170.913 12.8164C171.282 12.3602 171.086 12.012 170.581 12.012H168.269C168.269 12.012 165.306 15.8057 165.072 16.1058C164.839 16.4059 164.371 16.3939 164.138 16.1058C163.904 15.8177 161.051 12.012 161.051 12.012H156.206V12.012ZM172.844 12.012C172.205 12.012 171.688 12.5282 171.688 13.1405C171.688 13.7528 172.205 14.269 172.844 14.269C173.471 14.269 174 13.7528 174 13.1405C174 12.5162 173.484 12.012 172.844 12.012ZM172.844 12.2761C173.311 12.2761 173.729 12.6843 173.729 13.1405C173.729 13.5967 173.311 13.9448 172.844 13.9448C172.377 13.9448 172.02 13.5967 172.02 13.1405C172.02 12.6843 172.377 12.2761 172.844 12.2761ZM172.352 12.7083C172.315 12.7083 172.303 12.7203 172.303 12.7563V13.4526C172.303 13.5007 172.34 13.5007 172.463 13.5007C172.598 13.5007 172.623 13.4886 172.623 13.4526V12.8644C172.623 12.8284 172.635 12.8164 172.672 12.8164H172.832C172.942 12.8164 172.992 12.8764 172.992 12.9244C172.992 13.0084 172.856 13.0324 172.721 13.0324H172.672C172.61 13.0324 172.623 13.2125 172.672 13.2485C172.807 13.3566 172.93 13.4646 173.004 13.5127C173.029 13.5367 173.078 13.5127 173.115 13.5127H173.447C173.484 13.5127 173.484 13.4886 173.447 13.4646L173.004 13.1405C173.115 13.1405 173.447 13.1525 173.447 12.9244C173.447 12.7683 173.238 12.7083 172.955 12.7083H172.352V12.7083ZM145.237 13.6207C147.266 13.6207 147.831 14.1489 147.831 15.3975V16.8981C147.831 17.4264 147.721 17.4864 147.229 17.4864H143.208C142.666 17.4864 142.543 17.3783 142.543 16.8981V15.3975C142.543 14.1489 143.208 13.6207 145.237 13.6207Z" fill="white"/>
</svg>
