<svg width="36" height="36" viewBox="0 0 36 36" fill="none" xmlns="http://www.w3.org/2000/svg">
<g clip-path="url(#clip0_319_12658)">
<path d="M34.8631 3.2639L32.7224 1.1378C31.3268 -0.248277 28.9746 -0.32912 27.4788 0.958148L23.7177 4.1967C23.6697 4.23816 23.6279 4.28722 23.5952 4.34112L19.933 10.3995L17.5814 11.1775C17.3824 11.2432 17.2329 11.4069 17.1842 11.6087C17.1355 11.8105 17.1967 12.024 17.3449 12.1711L23.7532 18.5349C23.868 18.6489 24.0217 18.7104 24.1803 18.7104C24.227 18.7104 24.2729 18.7049 24.3188 18.6945C24.5226 18.6469 24.6868 18.4976 24.7529 18.3L25.537 15.9638L31.7261 12.252C31.7804 12.2195 31.8298 12.178 31.8708 12.1304L35.0545 8.46618C36.345 6.98406 36.2588 4.64998 34.8631 3.2639ZM34.1417 7.68331L31.0207 11.275L24.723 15.0518C24.5999 15.1257 24.5073 15.2404 24.4621 15.3758L23.9167 17.0003L22.4723 15.5658L22.4716 15.5652L20.3358 13.4439L20.3351 13.4432L18.8908 12.0088L20.5264 11.467C20.6635 11.4214 20.779 11.3295 20.8534 11.2065L24.5811 5.04037L28.2705 1.8647C29.2967 0.98095 30.9107 1.03554 31.8681 1.98631L34.0088 4.11241C34.9668 5.06387 35.0259 6.66552 34.1417 7.68331Z" fill="#009EFF"/>
<path d="M33.1504 24.1525C31.3763 22.3912 28.766 21.7784 26.4005 22.5405L13.561 9.78871C14.3277 7.43943 13.7113 4.84623 11.9379 3.08496C10.0692 1.22903 7.27167 0.647924 4.81021 1.60629C4.62028 1.68023 4.48113 1.84399 4.43939 2.04229C4.39764 2.2406 4.45956 2.44582 4.60358 2.58954L8.44674 6.40643L5.88371 8.95195L2.04054 5.13437C1.89653 4.99134 1.6892 4.92984 1.48953 4.9713C1.28986 5.01276 1.12497 5.15095 1.05053 5.33958C0.0862579 7.78353 0.670664 10.5619 2.53937 12.4185C4.31346 14.1798 6.92381 14.7927 9.28926 14.0312L14.0904 18.7996L8.11141 24.7378L4.30859 26.8493C4.20284 26.9081 4.11727 26.9972 4.063 27.105L2.35431 30.499C2.23812 30.7298 2.28335 31.009 2.46771 31.1914L4.60358 33.3126C4.71976 33.428 4.87421 33.4882 5.03075 33.4882C5.12259 33.4882 5.21512 33.4674 5.30069 33.4246L8.71808 31.7276C8.82661 31.6737 8.91636 31.5887 8.97549 31.4837L11.1016 27.7068L17.0806 21.7694L22.1288 26.783C21.3621 29.1323 21.9785 31.7248 23.7526 33.4868C25.023 34.7485 26.7234 35.4208 28.455 35.4208C29.2704 35.4208 30.0927 35.2715 30.8803 34.9654C31.0702 34.8915 31.2094 34.7277 31.2511 34.5294C31.2929 34.3311 31.2309 34.1259 31.0869 33.9822L27.2437 30.1653L29.8068 27.6198L33.65 31.4367C33.794 31.5797 34.0013 31.6412 34.201 31.5997C34.4006 31.5583 34.5655 31.4201 34.64 31.2315C35.6035 28.7868 35.0191 26.0084 33.1504 24.1525ZM10.1881 26.9171C10.1485 26.9564 10.1151 27 10.088 27.0483L8.01192 30.7367L5.15041 32.158L3.63026 30.6483L5.06136 27.8063L8.77512 25.7445C8.82382 25.7175 8.86835 25.6844 8.90731 25.645L14.9455 19.6481L16.227 20.9209L10.1881 26.9171ZM33.7856 29.8744L30.234 26.347C29.9981 26.1128 29.6155 26.1128 29.3796 26.347L25.9622 29.741C25.8488 29.8537 25.7855 30.0064 25.7855 30.1653C25.7855 30.3242 25.8495 30.4769 25.9622 30.5895L29.5139 34.1169C27.753 34.4645 25.9059 33.9276 24.607 32.6383C23.0778 31.1195 22.5998 28.8462 23.3888 26.8459C23.4764 26.6241 23.4235 26.3712 23.2538 26.2026L9.87367 12.914C9.75818 12.7993 9.60373 12.7384 9.4465 12.7384C9.37275 12.7384 9.29761 12.7523 9.22595 12.7799C7.21253 13.5635 4.92291 13.0888 3.39372 11.57C2.09481 10.28 1.55423 8.44547 1.90487 6.69664L5.45653 10.224C5.69238 10.4583 6.07503 10.4583 6.31088 10.224L9.72826 6.83C9.96411 6.59576 9.96411 6.21573 9.72826 5.98149L6.1766 2.45411C7.93748 2.10586 9.78462 2.64343 11.0835 3.93278C12.6127 5.45152 13.0907 7.7248 12.3017 9.72514C12.2141 9.94694 12.267 10.1998 12.4367 10.3684L25.8168 23.6571C25.9866 23.8257 26.2412 23.8782 26.4645 23.7911C28.4787 23.0076 30.7676 23.4823 32.2968 25.001C33.595 26.291 34.1356 28.1256 33.7856 29.8744Z" fill="#999999"/>
</g>
<defs>
<clipPath id="clip0_319_12658">
<rect width="35.3774" height="35.3774" fill="white" transform="translate(0.591919 0.043335)"/>
</clipPath>
</defs>
</svg>
